/vscmnt/brussel_pixiu_data/_data_brussel/112/vsc11236/PredSimResults/SUBJ07mtu3D/worker3.mot
version=1
nRows=11
nColumns=50
inDegrees=yes
endheader
                time	         pelvis_tilt	         pelvis_list	     pelvis_rotation	           pelvis_tx	           pelvis_ty	           pelvis_tz	       hip_flexion_r	     hip_adduction_r	      hip_rotation_r	        knee_angle_r	       ankle_angle_r	         mtp_angle_r	       hip_flexion_l	     hip_adduction_l	      hip_rotation_l	        knee_angle_l	       ankle_angle_l	         mtp_angle_l	    lumbar_extension	      lumbar_bending	     lumbar_rotation	 ercspn_r/activation	 intobl_r/activation	 extobl_r/activation	    abd_r/activation	    add_r/activation	hamstrings_r/activation	bifemsh_r/activation	glut_max_r/activation	iliopsoas_r/activation	rect_fem_r/activation	  vasti_r/activation	gastroc_r/activation	 soleus_r/activation	tib_ant_r/activation	 ercspn_l/activation	 intobl_l/activation	 extobl_l/activation	    abd_l/activation	    add_l/activation	hamstrings_l/activation	bifemsh_l/activation	glut_max_l/activation	iliopsoas_l/activation	rect_fem_l/activation	  vasti_l/activation	gastroc_l/activation	 soleus_l/activation	tib_ant_l/activation	
          1.04324549	         -5.96686690	         -2.25225315	          7.63847444	          1.27275949	          0.85186608	         -0.01111054	         30.99938602	          0.34490976	         -4.10466013	         -7.41724154	          6.61989799	          0.26074290	        -11.10071436	         -0.97067561	          4.95302992	         -9.07503256	          9.81589045	         24.40708790	         -5.77805490	          0.75384396	         -3.34849568	          0.09563757	          0.17925672	          0.03071501	          0.04630724	          0.09885785	          0.05111860	          0.00999999	          0.03516652	          0.03677601	          0.02064554	          0.03985491	          0.00999999	          0.00999999	          0.30042422	          0.09055572	          0.00999999	          0.00999999	          0.05326273	          0.00999999	          0.02003910	          0.13273204	          0.03423262	          0.37557753	          0.00999999	          0.00999999	          0.06487051	          0.30761588	          0.01808830	
          1.05367794	         -6.02820455	         -2.20795306	          7.50866231	          1.28753120	          0.85041243	         -0.01127413	         30.38969279	          0.63471172	         -3.26920219	         -7.75549617	          6.24427725	          0.25512663	        -11.13085640	         -0.88487199	          4.39490057	        -10.80327863	          9.22199876	         26.04138812	         -5.57553429	          1.22393738	         -3.39853783	          0.08147173	          0.16595555	          0.02616550	          0.03944821	          0.10413635	          0.04527629	          0.00999999	          0.09170639	          0.03132875	          0.01758752	          0.03395161	          0.01617575	          0.01617574	          0.28394951	          0.12486814	          0.00999999	          0.00999999	          0.04537345	          0.02213274	          0.02395901	          0.11307177	          0.02916209	          0.35537405	          0.00999999	          0.00999999	          0.05526189	          0.29241858	          0.01540906	
          1.06411040	         -6.07664185	         -2.17421636	          7.32601736	          1.30251541	          0.84911481	         -0.01138095	         29.70771580	          0.89861704	         -2.42906355	         -8.22107473	          5.89300115	          0.24956395	        -11.05643842	         -0.80476271	          3.78962008	        -12.75895133	          8.48518702	         27.64994670	         -5.35385754	          1.71896667	         -3.43607412	          0.08021447	          0.16115810	          0.02228987	          0.09009596	          0.09471668	          0.04590975	          0.02228989	          0.10196816	          0.02668833	          0.01498246	          0.02892269	          0.01377979	          0.01377979	          0.33319935	          0.13174011	          0.00999999	          0.00999999	          0.03865274	          0.01885444	          0.02041020	          0.09632358	          0.02484260	          0.33950978	          0.00999999	          0.00999999	          0.04707650	          0.27099701	          0.01312667	
          1.07454285	         -6.11439007	         -2.14600546	          7.08891811	          1.31750737	          0.84811897	         -0.01139574	         29.02982351	          1.16569183	         -1.67046545	         -8.68024939	          5.44445850	          0.23711347	        -10.79705395	         -0.72573541	          3.13940511	        -15.04988378	          7.58229966	         29.17022693	         -5.13899653	          2.22869810	         -3.45879954	          0.08022848	          0.13728736	          0.01898829	          0.12254079	          0.09578750	          0.04808774	          0.01898831	          0.10908897	          0.02273526	          0.01276326	          0.06102662	          0.01173873	          0.01173873	          0.36425858	          0.15168118	          0.00999999	          0.00999999	          0.03292750	          0.02015883	          0.03518154	          0.08205613	          0.02116291	          0.31370812	          0.00999999	          0.01155751	          0.04010353	          0.24603006	          0.01118235	
          1.08497531	         -6.14224458	         -2.12824525	          6.80337027	          1.33238115	          0.84755175	         -0.01132096	         28.37975713	          1.44544036	         -0.99130355	         -9.18720798	          5.02715212	          0.22360963	        -10.29960715	         -0.65757608	          2.44337981	        -17.74076749	          6.51159305	         30.44882845	         -4.94298385	          2.75550499	         -3.46666698	          0.07909352	          0.11695236	          0.01617575	          0.15062533	          0.09831712	          0.05131743	          0.01617576	          0.10915616	          0.01936771	          0.01087276	          0.09601603	          0.00999999	          0.00999999	          0.38388608	          0.16609818	          0.00999999	          0.00999999	          0.02805027	          0.02979300	          0.02997046	          0.06990198	          0.01802826	          0.28557012	          0.00999999	          0.00999999	          0.03416340	          0.20958809	          0.00999999	
          1.09540776	         -6.16100303	         -2.11890789	          6.47387386	          1.34706003	          0.84750689	         -0.01116773	         27.72811043	          1.73231489	         -0.38963146	         -9.69627919	          4.71563686	          0.20746802	         -9.52390474	         -0.60604800	          1.69922518	        -20.88436182	          5.31865781	         31.21132667	         -4.77163981	          3.29356972	         -3.45742417	          0.07160434	          0.09962938	          0.01377979	          0.17208255	          0.09464177	          0.05109053	          0.01377981	          0.10420075	          0.01649897	          0.00999999	          0.13530570	          0.00999999	          0.00999999	          0.38891481	          0.18190665	          0.00999999	          0.00999999	          0.02389547	          0.03769227	          0.02553123	          0.05954810	          0.01535792	          0.24821049	          0.00999999	          0.00999999	          0.02910311	          0.17854390	          0.00999999	
          1.10584022	         -6.17182096	         -2.11347011	          6.10257747	          1.36148721	          0.84805824	         -0.01094978	         27.03100638	          2.01751123	          0.13425284	        -10.12367388	          4.52842115	          0.19330706	         -8.45159680	         -0.57764689	          0.90760018	        -24.48040038	          3.97553863	         31.27696825	         -4.62906453	          3.83465580	         -3.42815123	          0.06556849	          0.08487227	          0.01173873	          0.18017218	          0.08812978	          0.05046570	          0.01173874	          0.09742358	          0.01405514	          0.00999999	          0.16235250	          0.00999999	          0.00999999	          0.38162531	          0.18933152	          0.00999999	          0.00999999	          0.02035607	          0.04540535	          0.02174955	          0.05072783	          0.01308310	          0.21144556	          0.00999999	          0.00999999	          0.02479236	          0.15209798	          0.00999999	
          1.11627267	         -6.17551869	         -2.10394715	          5.69245313	          1.37564425	          0.84919860	         -0.01068292	         26.25357543	          2.29055690	          0.59870466	        -10.40154921	          4.45046790	          0.18239507	         -7.10046587	         -0.57670026	          0.07633869	        -28.44236290	          2.36515654	         30.64136240	         -4.51574047	          4.36735042	         -3.37757397	          0.05585648	          0.07230099	          0.00999999	          0.18152201	          0.07507600	          0.05049785	          0.01000000	          0.08299320	          0.01197329	          0.00999999	          0.17220280	          0.00999999	          0.00999999	          0.36411377	          0.18683901	          0.00999999	          0.00999999	          0.01734093	          0.04603294	          0.01852800	          0.04778697	          0.01114523	          0.18012624	          0.00999999	          0.00999999	          0.02112012	          0.12956923	          0.00999999	
          1.12670513	         -6.17248908	         -2.08259352	          5.24930033	          1.38952667	          0.85083647	         -0.01037993	         25.39594878	          2.54236450	          1.03866641	        -10.52852428	          4.46044517	          0.17637919	         -5.51546408	         -0.60777938	         -0.78478335	        -32.63533563	          0.41874402	         29.31161156	         -4.43186851	          4.88040274	         -3.30771717	          0.04758302	          0.06159177	          0.00999999	          0.18348515	          0.06395574	          0.04969672	          0.00999999	          0.07070025	          0.01019981	          0.00999999	          0.16152156	          0.00999999	          0.00999999	          0.34011330	          0.18507443	          0.00999999	          0.00999999	          0.01477239	          0.03921454	          0.01578364	          0.04070877	          0.00999999	          0.15344594	          0.00999999	          0.00999999	          0.01799180	          0.11037744	          0.00999999	
          1.13713758	         -6.16244748	         -2.04465542	          4.78144031	          1.40314838	          0.85283115	         -0.01005052	         24.48442634	          2.76680108	          1.48015836	        -10.55316334	          4.53412783	          0.17580697	         -3.76532821	         -0.67480442	         -1.66561529	        -36.89441981	         -1.86420582	         27.31397293	         -4.37496710	          5.36503123	         -3.22374005	          0.04053503	          0.05246880	          0.00999999	          0.18439840	          0.05448262	          0.05046505	          0.00999999	          0.06022813	          0.00999999	          0.00999999	          0.15020244	          0.00999999	          0.00999999	          0.31478327	          0.18626505	          0.00999999	          0.00999999	          0.01258430	          0.03340608	          0.01344576	          0.03617439	          0.00999999	          0.13071753	          0.00999999	          0.00999999	          0.01532686	          0.09402833	          0.00999999	
          1.14757004	         -6.14462533	         -1.98482738	          4.29306321	          1.41654535	          0.85503239	         -0.00969994	         23.53977621	          2.95760209	          1.93366768	        -10.51534941	          4.64881050	          0.18182430	         -1.93825426	         -0.76759836	         -2.54717142	        -41.07993235	         -4.12901763	         24.54400658	         -4.33952604	          5.81104989	         -3.12728174	          0.03453098	          0.04469712	          0.00999999	          0.18382707	          0.04641265	          0.04693880	          0.00999999	          0.06235910	          0.00999999	          0.00999999	          0.14188129	          0.00999999	          0.00999999	          0.29152922	          0.19482704	          0.02277563	          0.00999999	          0.01072032	          0.02845797	          0.01145418	          0.05511487	          0.00999999	          0.11315265	          0.00999999	          0.00999999	          0.01305664	          0.08010085	          0.08068307	
